<?xml version="1.0" encoding="UTF-8" standalone="no"?>
<!DOCTYPE svg PUBLIC "-//W3C//DTD SVG 1.1//EN"
 "http://www.w3.org/Graphics/SVG/1.1/DTD/svg11.dtd">
<!-- Generated by graphviz version 2.38.0 (20140413.2041)
 -->
<!-- Title: Tree Pages: 1 -->
<svg width="988pt" height="373pt"
 viewBox="0.00 0.00 987.50 373.00" xmlns="http://www.w3.org/2000/svg" xmlns:xlink="http://www.w3.org/1999/xlink">
<g id="graph0" class="graph" transform="scale(1 1) rotate(0) translate(4 369)">
<title>Tree</title>
<polygon fill="white" stroke="none" points="-4,4 -4,-369 983.5,-369 983.5,4 -4,4"/>
<!-- 0 -->
<g id="node1" class="node"><title>0</title>
<path fill="#e58139" fill-opacity="0.376471" stroke="black" d="M527,-365C527,-365 425,-365 425,-365 419,-365 413,-359 413,-353 413,-353 413,-309 413,-309 413,-303 419,-297 425,-297 425,-297 527,-297 527,-297 533,-297 539,-303 539,-309 539,-309 539,-353 539,-353 539,-359 533,-365 527,-365"/>
<text text-anchor="start" x="427" y="-349.8" font-family="Helvetica,sans-Serif" font-size="14.00">Sex_male ≤ 0.5</text>
<text text-anchor="start" x="440" y="-334.8" font-family="Helvetica,sans-Serif" font-size="14.00">gini = 0.473</text>
<text text-anchor="start" x="430.5" y="-319.8" font-family="Helvetica,sans-Serif" font-size="14.00">samples = 891</text>
<text text-anchor="start" x="421" y="-304.8" font-family="Helvetica,sans-Serif" font-size="14.00">value = [549, 342]</text>
</g>
<!-- 1 -->
<g id="node2" class="node"><title>1</title>
<path fill="#399de5" fill-opacity="0.650980" stroke="black" d="M399.5,-261C399.5,-261 304.5,-261 304.5,-261 298.5,-261 292.5,-255 292.5,-249 292.5,-249 292.5,-205 292.5,-205 292.5,-199 298.5,-193 304.5,-193 304.5,-193 399.5,-193 399.5,-193 405.5,-193 411.5,-199 411.5,-205 411.5,-205 411.5,-249 411.5,-249 411.5,-255 405.5,-261 399.5,-261"/>
<text text-anchor="start" x="314" y="-245.8" font-family="Helvetica,sans-Serif" font-size="14.00">Pclass ≤ 2.5</text>
<text text-anchor="start" x="316" y="-230.8" font-family="Helvetica,sans-Serif" font-size="14.00">gini = 0.383</text>
<text text-anchor="start" x="306.5" y="-215.8" font-family="Helvetica,sans-Serif" font-size="14.00">samples = 314</text>
<text text-anchor="start" x="300.5" y="-200.8" font-family="Helvetica,sans-Serif" font-size="14.00">value = [81, 233]</text>
</g>
<!-- 0&#45;&gt;1 -->
<g id="edge1" class="edge"><title>0&#45;&gt;1</title>
<path fill="none" stroke="black" d="M435.741,-296.884C424.479,-287.62 412.122,-277.455 400.44,-267.845"/>
<polygon fill="black" stroke="black" points="402.428,-264.949 392.482,-261.299 397.981,-270.355 402.428,-264.949"/>
<text text-anchor="middle" x="394.904" y="-282.482" font-family="Helvetica,sans-Serif" font-size="14.00">True</text>
</g>
<!-- 8 -->
<g id="node9" class="node"><title>8</title>
<path fill="#e58139" fill-opacity="0.768627" stroke="black" d="M653,-261C653,-261 551,-261 551,-261 545,-261 539,-255 539,-249 539,-249 539,-205 539,-205 539,-199 545,-193 551,-193 551,-193 653,-193 653,-193 659,-193 665,-199 665,-205 665,-205 665,-249 665,-249 665,-255 659,-261 653,-261"/>
<text text-anchor="start" x="572" y="-245.8" font-family="Helvetica,sans-Serif" font-size="14.00">Age ≤ 6.5</text>
<text text-anchor="start" x="566" y="-230.8" font-family="Helvetica,sans-Serif" font-size="14.00">gini = 0.306</text>
<text text-anchor="start" x="556.5" y="-215.8" font-family="Helvetica,sans-Serif" font-size="14.00">samples = 577</text>
<text text-anchor="start" x="547" y="-200.8" font-family="Helvetica,sans-Serif" font-size="14.00">value = [468, 109]</text>
</g>
<!-- 0&#45;&gt;8 -->
<g id="edge8" class="edge"><title>0&#45;&gt;8</title>
<path fill="none" stroke="black" d="M516.909,-296.884C528.352,-287.62 540.909,-277.455 552.779,-267.845"/>
<polygon fill="black" stroke="black" points="555.295,-270.312 560.865,-261.299 550.891,-264.871 555.295,-270.312"/>
<text text-anchor="middle" x="558.248" y="-282.462" font-family="Helvetica,sans-Serif" font-size="14.00">False</text>
</g>
<!-- 2 -->
<g id="node3" class="node"><title>2</title>
<path fill="#399de5" fill-opacity="0.945098" stroke="black" d="M213.5,-157C213.5,-157 126.5,-157 126.5,-157 120.5,-157 114.5,-151 114.5,-145 114.5,-145 114.5,-101 114.5,-101 114.5,-95 120.5,-89 126.5,-89 126.5,-89 213.5,-89 213.5,-89 219.5,-89 225.5,-95 225.5,-101 225.5,-101 225.5,-145 225.5,-145 225.5,-151 219.5,-157 213.5,-157"/>
<text text-anchor="start" x="140" y="-141.8" font-family="Helvetica,sans-Serif" font-size="14.00">Age ≤ 2.5</text>
<text text-anchor="start" x="141.5" y="-126.8" font-family="Helvetica,sans-Serif" font-size="14.00">gini = 0.1</text>
<text text-anchor="start" x="124.5" y="-111.8" font-family="Helvetica,sans-Serif" font-size="14.00">samples = 170</text>
<text text-anchor="start" x="122.5" y="-96.8" font-family="Helvetica,sans-Serif" font-size="14.00">value = [9, 161]</text>
</g>
<!-- 1&#45;&gt;2 -->
<g id="edge2" class="edge"><title>1&#45;&gt;2</title>
<path fill="none" stroke="black" d="M292.91,-192.884C274.272,-182.438 253.59,-170.847 234.589,-160.198"/>
<polygon fill="black" stroke="black" points="236.138,-157.054 225.703,-155.218 232.716,-163.161 236.138,-157.054"/>
</g>
<!-- 5 -->
<g id="node6" class="node"><title>5</title>
<path fill="none" stroke="black" d="M395.5,-157C395.5,-157 308.5,-157 308.5,-157 302.5,-157 296.5,-151 296.5,-145 296.5,-145 296.5,-101 296.5,-101 296.5,-95 302.5,-89 308.5,-89 308.5,-89 395.5,-89 395.5,-89 401.5,-89 407.5,-95 407.5,-101 407.5,-101 407.5,-145 407.5,-145 407.5,-151 401.5,-157 395.5,-157"/>
<text text-anchor="start" x="312.5" y="-141.8" font-family="Helvetica,sans-Serif" font-size="14.00">Fare ≤ 23.35</text>
<text text-anchor="start" x="323.5" y="-126.8" font-family="Helvetica,sans-Serif" font-size="14.00">gini = 0.5</text>
<text text-anchor="start" x="306.5" y="-111.8" font-family="Helvetica,sans-Serif" font-size="14.00">samples = 144</text>
<text text-anchor="start" x="304.5" y="-96.8" font-family="Helvetica,sans-Serif" font-size="14.00">value = [72, 72]</text>
</g>
<!-- 1&#45;&gt;5 -->
<g id="edge5" class="edge"><title>1&#45;&gt;5</title>
<path fill="none" stroke="black" d="M352,-192.884C352,-184.778 352,-175.982 352,-167.472"/>
<polygon fill="black" stroke="black" points="355.5,-167.299 352,-157.299 348.5,-167.299 355.5,-167.299"/>
</g>
<!-- 3 -->
<g id="node4" class="node"><title>3</title>
<path fill="none" stroke="black" d="M84,-53C84,-53 12,-53 12,-53 6,-53 0,-47 0,-41 0,-41 0,-12 0,-12 0,-6 6,-0 12,-0 12,-0 84,-0 84,-0 90,-0 96,-6 96,-12 96,-12 96,-41 96,-41 96,-47 90,-53 84,-53"/>
<text text-anchor="start" x="19.5" y="-37.8" font-family="Helvetica,sans-Serif" font-size="14.00">gini = 0.5</text>
<text text-anchor="start" x="10" y="-22.8" font-family="Helvetica,sans-Serif" font-size="14.00">samples = 2</text>
<text text-anchor="start" x="8" y="-7.8" font-family="Helvetica,sans-Serif" font-size="14.00">value = [1, 1]</text>
</g>
<!-- 2&#45;&gt;3 -->
<g id="edge3" class="edge"><title>2&#45;&gt;3</title>
<path fill="none" stroke="black" d="M127.33,-88.9485C115.048,-79.4346 101.672,-69.074 89.4639,-59.6175"/>
<polygon fill="black" stroke="black" points="91.2753,-56.5934 81.2262,-53.2367 86.9887,-62.1274 91.2753,-56.5934"/>
</g>
<!-- 4 -->
<g id="node5" class="node"><title>4</title>
<path fill="#399de5" fill-opacity="0.949020" stroke="black" d="M213.5,-53C213.5,-53 126.5,-53 126.5,-53 120.5,-53 114.5,-47 114.5,-41 114.5,-41 114.5,-12 114.5,-12 114.5,-6 120.5,-0 126.5,-0 126.5,-0 213.5,-0 213.5,-0 219.5,-0 225.5,-6 225.5,-12 225.5,-12 225.5,-41 225.5,-41 225.5,-47 219.5,-53 213.5,-53"/>
<text text-anchor="start" x="134" y="-37.8" font-family="Helvetica,sans-Serif" font-size="14.00">gini = 0.091</text>
<text text-anchor="start" x="124.5" y="-22.8" font-family="Helvetica,sans-Serif" font-size="14.00">samples = 168</text>
<text text-anchor="start" x="122.5" y="-7.8" font-family="Helvetica,sans-Serif" font-size="14.00">value = [8, 160]</text>
</g>
<!-- 2&#45;&gt;4 -->
<g id="edge4" class="edge"><title>2&#45;&gt;4</title>
<path fill="none" stroke="black" d="M170,-88.9485C170,-80.7153 170,-71.848 170,-63.4814"/>
<polygon fill="black" stroke="black" points="173.5,-63.2367 170,-53.2367 166.5,-63.2367 173.5,-63.2367"/>
</g>
<!-- 6 -->
<g id="node7" class="node"><title>6</title>
<path fill="#399de5" fill-opacity="0.305882" stroke="black" d="M342.5,-53C342.5,-53 255.5,-53 255.5,-53 249.5,-53 243.5,-47 243.5,-41 243.5,-41 243.5,-12 243.5,-12 243.5,-6 249.5,-0 255.5,-0 255.5,-0 342.5,-0 342.5,-0 348.5,-0 354.5,-6 354.5,-12 354.5,-12 354.5,-41 354.5,-41 354.5,-47 348.5,-53 342.5,-53"/>
<text text-anchor="start" x="263" y="-37.8" font-family="Helvetica,sans-Serif" font-size="14.00">gini = 0.484</text>
<text text-anchor="start" x="253.5" y="-22.8" font-family="Helvetica,sans-Serif" font-size="14.00">samples = 117</text>
<text text-anchor="start" x="251.5" y="-7.8" font-family="Helvetica,sans-Serif" font-size="14.00">value = [48, 69]</text>
</g>
<!-- 5&#45;&gt;6 -->
<g id="edge6" class="edge"><title>5&#45;&gt;6</title>
<path fill="none" stroke="black" d="M333.463,-88.9485C328.589,-80.2579 323.319,-70.8608 318.401,-62.0917"/>
<polygon fill="black" stroke="black" points="321.379,-60.2465 313.434,-53.2367 315.273,-63.6707 321.379,-60.2465"/>
</g>
<!-- 7 -->
<g id="node8" class="node"><title>7</title>
<path fill="#e58139" fill-opacity="0.874510" stroke="black" d="M465,-53C465,-53 385,-53 385,-53 379,-53 373,-47 373,-41 373,-41 373,-12 373,-12 373,-6 379,-0 385,-0 385,-0 465,-0 465,-0 471,-0 477,-6 477,-12 477,-12 477,-41 477,-41 477,-47 471,-53 465,-53"/>
<text text-anchor="start" x="389" y="-37.8" font-family="Helvetica,sans-Serif" font-size="14.00">gini = 0.198</text>
<text text-anchor="start" x="383" y="-22.8" font-family="Helvetica,sans-Serif" font-size="14.00">samples = 27</text>
<text text-anchor="start" x="381" y="-7.8" font-family="Helvetica,sans-Serif" font-size="14.00">value = [24, 3]</text>
</g>
<!-- 5&#45;&gt;7 -->
<g id="edge7" class="edge"><title>5&#45;&gt;7</title>
<path fill="none" stroke="black" d="M377.532,-88.9485C384.457,-79.9834 391.963,-70.2666 398.919,-61.2629"/>
<polygon fill="black" stroke="black" points="401.775,-63.2902 405.119,-53.2367 396.236,-59.0108 401.775,-63.2902"/>
</g>
<!-- 9 -->
<g id="node10" class="node"><title>9</title>
<path fill="#399de5" fill-opacity="0.498039" stroke="black" d="M642,-157C642,-157 562,-157 562,-157 556,-157 550,-151 550,-145 550,-145 550,-101 550,-101 550,-95 556,-89 562,-89 562,-89 642,-89 642,-89 648,-89 654,-95 654,-101 654,-101 654,-145 654,-145 654,-151 648,-157 642,-157"/>
<text text-anchor="start" x="565.5" y="-141.8" font-family="Helvetica,sans-Serif" font-size="14.00">SibSp ≤ 2.5</text>
<text text-anchor="start" x="566" y="-126.8" font-family="Helvetica,sans-Serif" font-size="14.00">gini = 0.444</text>
<text text-anchor="start" x="560" y="-111.8" font-family="Helvetica,sans-Serif" font-size="14.00">samples = 24</text>
<text text-anchor="start" x="558" y="-96.8" font-family="Helvetica,sans-Serif" font-size="14.00">value = [8, 16]</text>
</g>
<!-- 8&#45;&gt;9 -->
<g id="edge9" class="edge"><title>8&#45;&gt;9</title>
<path fill="none" stroke="black" d="M602,-192.884C602,-184.778 602,-175.982 602,-167.472"/>
<polygon fill="black" stroke="black" points="605.5,-167.299 602,-157.299 598.5,-167.299 605.5,-167.299"/>
</g>
<!-- 12 -->
<g id="node13" class="node"><title>12</title>
<path fill="#e58139" fill-opacity="0.796078" stroke="black" d="M834.5,-157C834.5,-157 739.5,-157 739.5,-157 733.5,-157 727.5,-151 727.5,-145 727.5,-145 727.5,-101 727.5,-101 727.5,-95 733.5,-89 739.5,-89 739.5,-89 834.5,-89 834.5,-89 840.5,-89 846.5,-95 846.5,-101 846.5,-101 846.5,-145 846.5,-145 846.5,-151 840.5,-157 834.5,-157"/>
<text text-anchor="start" x="749" y="-141.8" font-family="Helvetica,sans-Serif" font-size="14.00">Pclass ≤ 1.5</text>
<text text-anchor="start" x="755" y="-126.8" font-family="Helvetica,sans-Serif" font-size="14.00">gini = 0.28</text>
<text text-anchor="start" x="741.5" y="-111.8" font-family="Helvetica,sans-Serif" font-size="14.00">samples = 553</text>
<text text-anchor="start" x="735.5" y="-96.8" font-family="Helvetica,sans-Serif" font-size="14.00">value = [460, 93]</text>
</g>
<!-- 8&#45;&gt;12 -->
<g id="edge12" class="edge"><title>8&#45;&gt;12</title>
<path fill="none" stroke="black" d="M662.064,-192.884C680.017,-182.985 699.835,-172.058 718.297,-161.879"/>
<polygon fill="black" stroke="black" points="720.17,-164.844 727.237,-156.95 716.79,-158.714 720.17,-164.844"/>
</g>
<!-- 10 -->
<g id="node11" class="node"><title>10</title>
<path fill="#399de5" stroke="black" d="M587,-53C587,-53 507,-53 507,-53 501,-53 495,-47 495,-41 495,-41 495,-12 495,-12 495,-6 501,-0 507,-0 507,-0 587,-0 587,-0 593,-0 599,-6 599,-12 599,-12 599,-41 599,-41 599,-47 593,-53 587,-53"/>
<text text-anchor="start" x="518.5" y="-37.8" font-family="Helvetica,sans-Serif" font-size="14.00">gini = 0.0</text>
<text text-anchor="start" x="505" y="-22.8" font-family="Helvetica,sans-Serif" font-size="14.00">samples = 15</text>
<text text-anchor="start" x="503" y="-7.8" font-family="Helvetica,sans-Serif" font-size="14.00">value = [0, 15]</text>
</g>
<!-- 9&#45;&gt;10 -->
<g id="edge10" class="edge"><title>9&#45;&gt;10</title>
<path fill="none" stroke="black" d="M582.764,-88.9485C577.706,-80.2579 572.236,-70.8608 567.133,-62.0917"/>
<polygon fill="black" stroke="black" points="570.034,-60.1189 561.979,-53.2367 563.984,-63.6401 570.034,-60.1189"/>
</g>
<!-- 11 -->
<g id="node12" class="node"><title>11</title>
<path fill="#e58139" fill-opacity="0.874510" stroke="black" d="M701,-53C701,-53 629,-53 629,-53 623,-53 617,-47 617,-41 617,-41 617,-12 617,-12 617,-6 623,-0 629,-0 629,-0 701,-0 701,-0 707,-0 713,-6 713,-12 713,-12 713,-41 713,-41 713,-47 707,-53 701,-53"/>
<text text-anchor="start" x="629" y="-37.8" font-family="Helvetica,sans-Serif" font-size="14.00">gini = 0.198</text>
<text text-anchor="start" x="627" y="-22.8" font-family="Helvetica,sans-Serif" font-size="14.00">samples = 9</text>
<text text-anchor="start" x="625" y="-7.8" font-family="Helvetica,sans-Serif" font-size="14.00">value = [8, 1]</text>
</g>
<!-- 9&#45;&gt;11 -->
<g id="edge11" class="edge"><title>9&#45;&gt;11</title>
<path fill="none" stroke="black" d="M624.034,-88.9485C629.889,-80.1664 636.225,-70.6629 642.123,-61.815"/>
<polygon fill="black" stroke="black" points="645.207,-63.4987 647.842,-53.2367 639.383,-59.6158 645.207,-63.4987"/>
</g>
<!-- 13 -->
<g id="node14" class="node"><title>13</title>
<path fill="#e58139" fill-opacity="0.443137" stroke="black" d="M830.5,-53C830.5,-53 743.5,-53 743.5,-53 737.5,-53 731.5,-47 731.5,-41 731.5,-41 731.5,-12 731.5,-12 731.5,-6 737.5,-0 743.5,-0 743.5,-0 830.5,-0 830.5,-0 836.5,-0 842.5,-6 842.5,-12 842.5,-12 842.5,-41 842.5,-41 842.5,-47 836.5,-53 830.5,-53"/>
<text text-anchor="start" x="755" y="-37.8" font-family="Helvetica,sans-Serif" font-size="14.00">gini = 0.46</text>
<text text-anchor="start" x="741.5" y="-22.8" font-family="Helvetica,sans-Serif" font-size="14.00">samples = 120</text>
<text text-anchor="start" x="739.5" y="-7.8" font-family="Helvetica,sans-Serif" font-size="14.00">value = [77, 43]</text>
</g>
<!-- 12&#45;&gt;13 -->
<g id="edge13" class="edge"><title>12&#45;&gt;13</title>
<path fill="none" stroke="black" d="M787,-88.9485C787,-80.7153 787,-71.848 787,-63.4814"/>
<polygon fill="black" stroke="black" points="790.5,-63.2367 787,-53.2367 783.5,-63.2367 790.5,-63.2367"/>
</g>
<!-- 14 -->
<g id="node15" class="node"><title>14</title>
<path fill="#e58139" fill-opacity="0.870588" stroke="black" d="M967.5,-53C967.5,-53 872.5,-53 872.5,-53 866.5,-53 860.5,-47 860.5,-41 860.5,-41 860.5,-12 860.5,-12 860.5,-6 866.5,-0 872.5,-0 872.5,-0 967.5,-0 967.5,-0 973.5,-0 979.5,-6 979.5,-12 979.5,-12 979.5,-41 979.5,-41 979.5,-47 973.5,-53 967.5,-53"/>
<text text-anchor="start" x="884" y="-37.8" font-family="Helvetica,sans-Serif" font-size="14.00">gini = 0.204</text>
<text text-anchor="start" x="874.5" y="-22.8" font-family="Helvetica,sans-Serif" font-size="14.00">samples = 433</text>
<text text-anchor="start" x="868.5" y="-7.8" font-family="Helvetica,sans-Serif" font-size="14.00">value = [383, 50]</text>
</g>
<!-- 12&#45;&gt;14 -->
<g id="edge14" class="edge"><title>12&#45;&gt;14</title>
<path fill="none" stroke="black" d="M833.517,-88.9485C847.164,-79.2516 862.05,-68.6752 875.564,-59.073"/>
<polygon fill="black" stroke="black" points="877.653,-61.882 883.778,-53.2367 873.599,-56.1757 877.653,-61.882"/>
</g>
</g>
</svg>
